<svg xmlns="http://www.w3.org/2000/svg" width="27.229" height="28.466" viewBox="0 0 27.229 28.466">
    <path fill="#fff" stroke="#fff" stroke-width="0.8px" d="M22962.342 10499.308a2.31 2.31 0 0 1 2.209-2.352 2.276 2.276 0 0 1 2.213 2.352 2.315 2.315 0 0 1-2.213 2.358 2.281 2.281 0 0 1-2.209-2.358zm1.137-.006a1.146 1.146 0 0 0 1.072 1.183 1.115 1.115 0 0 0 1.078-1.183 1.155 1.155 0 0 0-1.078-1.182 1.115 1.115 0 0 0-1.072 1.18zm-13.2.006a2.309 2.309 0 0 1 2.213-2.352 2.274 2.274 0 0 1 2.207 2.352 2.215 2.215 0 1 1-4.42 0zm1.135-.006a1.156 1.156 0 0 0 1.078 1.183 1.113 1.113 0 0 0 1.072-1.183 1.08 1.08 0 1 0-2.15 0zm-1.072-3.055v-1.118h15.4a1.772 1.772 0 0 0 1.7-1.886 1.809 1.809 0 0 0-1.7-1.885h-15.457l-4.023-16.182H22944V10474h3.172l.875 3.591h22.23l-4.105 12.625a3.054 3.054 0 0 1-.426 6.03zm.795-6.059h13.871l3.684-11.426h-20.332z" transform="translate(-22943.598 -10473.601)"/>
</svg>
