<svg xmlns="http://www.w3.org/2000/svg" width="23.129" height="23.325" viewBox="0 0 23.129 23.325">
    <path fill="#303030" stroke="#303030" stroke-width="0.5px" d="M21287.729 13004.882a1.939 1.939 0 0 1 1.9-1.94 1.907 1.907 0 0 1 1.9 1.94 1.944 1.944 0 0 1-1.9 1.945 1.916 1.916 0 0 1-1.9-1.945zm.979-.006a.96.96 0 0 0 .92.973.936.936 0 0 0 .924-.973.967.967 0 0 0-.924-.973.932.932 0 0 0-.921.973zm-11.324.006a1.939 1.939 0 0 1 1.9-1.94 1.911 1.911 0 0 1 1.9 1.94 1.9 1.9 0 1 1-3.795 0zm.973-.006a.966.966 0 0 0 .924.973.936.936 0 0 0 .926-.973.926.926 0 1 0-1.85 0zm-.92-2.517v-.925h13.211a1.487 1.487 0 0 0 1.459-1.555 1.514 1.514 0 0 0-1.459-1.556h-13.258l-3.447-13.355H21272v-.968h2.715l.754 2.961h19.063l-3.518 10.421a2.416 2.416 0 0 1 2.059 2.447 2.456 2.456 0 0 1-2.428 2.528zm.68-5h11.9l3.158-9.428h-17.434z" transform="translate(-21271.752 -12983.752)"/>
</svg>
