<svg xmlns="http://www.w3.org/2000/svg" width="20.4" height="22.381" viewBox="0 0 20.4 22.381">
    <path fill="#303030" stroke="#303030" stroke-width="0.1px" d="M21372.813 13003.922a.666.666 0 0 1-.258-.312 7.563 7.563 0 0 1-.252-2.238v-.017a.825.825 0 0 0 .006-.123c.031-.972.1-3.265 2.238-4a.467.467 0 0 1 .049-.017 14.18 14.18 0 0 0 4.1-1.862.686.686 0 0 1 .127-.071c-1.832-2.156-1.523-5.758-1.49-6.1a5.045 5.045 0 0 1 2.426-4.5 5.525 5.525 0 0 1 2.658-.677h.086a5.517 5.517 0 0 1 2.658.7 5.049 5.049 0 0 1 2.395 4.482c.037.346.346 3.944-1.49 6.1a.661.661 0 0 1 .137.073 14.118 14.118 0 0 0 4.1 1.868c.016 0 .037.011.049.016 2.146.73 2.211 3.023 2.238 4 0 .043.006.081.006.124v.016a8.045 8.045 0 0 1-.236 2.233.69.69 0 0 1-.258.312 20.919 20.919 0 0 1-19.291 0zm6.652-7.479a15.6 15.6 0 0 1-4.516 2.062c-1.148.408-1.277 1.638-1.314 2.765v.124a8.271 8.271 0 0 0 .1 1.529 19.749 19.749 0 0 0 17.428.006 9.436 9.436 0 0 0 .107-1.53.825.825 0 0 1-.006-.123c-.037-1.128-.166-2.357-1.314-2.766a15.4 15.4 0 0 1-4.516-2.062.668.668 0 0 1-.258-.368 4.776 4.776 0 0 1-2.658.776h-.156a4.77 4.77 0 0 1-2.645-.77.671.671 0 0 1-.252.357zm-.8-7.179a.29.29 0 0 0-.006.038c-.006.032-.344 3.4 1.225 5.165a3.22 3.22 0 0 0 2.539 1.058h.049a3.241 3.241 0 0 0 2.545-1.058c1.572-1.772 1.229-5.133 1.223-5.165a.126.126 0 0 1 0-.038c-.156-3.35-2.422-3.9-3.76-3.925h-.059c-1.087.001-3.601.383-3.761 3.926z" transform="translate(-21372.248 -12983.948)"/>
</svg>
