<svg xmlns="http://www.w3.org/2000/svg" width="24.023" height="21.394" viewBox="0 0 24.023 21.394">
    <path fill="#303030" stroke="#303030" stroke-width="0.2px" d="M11.911 21.194a1.4 1.4 0 0 1-.921-.346c-.962-.842-1.89-1.632-2.709-2.33a50.378 50.378 0 0 1-5.915-5.551A8.867 8.867 0 0 1 0 7.159a7.446 7.446 0 0 1 1.89-5.085A6.406 6.406 0 0 1 6.655 0 5.992 5.992 0 0 1 10.4 1.292a7.658 7.658 0 0 1 1.513 1.58 7.659 7.659 0 0 1 1.513-1.58A5.992 5.992 0 0 1 17.168 0a6.406 6.406 0 0 1 4.765 2.074 7.446 7.446 0 0 1 1.89 5.085 8.866 8.866 0 0 1-2.363 5.8 50.372 50.372 0 0 1-5.914 5.551c-.82.7-1.749 1.491-2.714 2.334a1.4 1.4 0 0 1-.921.346zM6.655 1.4a5.026 5.026 0 0 0-3.739 1.62A6.057 6.057 0 0 0 1.4 7.159a7.461 7.461 0 0 0 2.042 4.914 49.575 49.575 0 0 0 5.745 5.38c.822.7 1.753 1.494 2.723 2.342.975-.849 1.908-1.644 2.732-2.346a49.588 49.588 0 0 0 5.745-5.379 7.461 7.461 0 0 0 2.042-4.914 6.057 6.057 0 0 0-1.52-4.139A5.025 5.025 0 0 0 17.168 1.4a4.628 4.628 0 0 0-2.889 1 6.772 6.772 0 0 0-1.61 1.863.881.881 0 0 1-1.513 0A6.765 6.765 0 0 0 9.544 2.4a4.628 4.628 0 0 0-2.889-1zm0 0" transform="translate(.1 .1)"/>
</svg>
